<?xml version="1.0" encoding="utf-8"?>
<svg xmlns="http://www.w3.org/2000/svg"
     xmlns:xlink="http://www.w3.org/1999/xlink"
     width="20" height="20" viewBox="0 0 20 20">
  <defs>
    <rect id="shape-lock-clasp-outer" x="4" y="1" width="10" height="16" rx="5" ry="5" />
    <rect id="shape-lock-clasp-inner" x="6" y="3.5" width="6" height="10" rx="3" ry="3" />
    <rect id="shape-lock-base" x="2" y="8" width="14" height="9" rx="1.5" ry="1.5" />
    <path id="shape-warning-triangle" d="M14.8,12.5L9.3,1.9C9,1.3,8.5,1,8,1C7.5,1,7,1.3,6.7,1.9L1.2,12.5c-0.3,0.6-0.3,1.2,0,1.7C1.5,14.7,2,15,2.6,15h10.8 c0.6,0,1.1-0.3,1.4-0.8C15.1,13.7,15.1,13.1,14.8,12.5z"/>
    <path id="shape-warning-exclamation" d="M8,11c-0.8,0-1.5,0.7-1.5,1.5C6.5,13.3,7.2,14,8,14 c0.8,0,1.5-0.7,1.5-1.5C9.5,11.7,8.8,11,8,11z M8,10L8,10C8.6,10,9,9.6,9,9l0.2-4.2c0-0.7-0.5-1.2-1.2-1.2S6.8,4.1,6.8,4.8L7,9 C7,9.6,7.4,10,8,10z"/>
    <mask id="mask-clasp-cutout">
      <rect width="20" height="20" fill="#000" />
      <use xlink:href="#shape-lock-clasp-outer" fill="#fff" />
      <use xlink:href="#shape-lock-clasp-inner" fill="#000" />
    </mask>
    <mask id="mask-lock-warning">
      <rect width="20" height="20" fill="#000" />
      <use xlink:href="#shape-lock-clasp-outer" mask="url(#mask-clasp-cutout)" fill="#fff"/>
      <use xlink:href="#shape-lock-base" fill="#fff"/>
      <use xlink:href="#shape-warning-triangle" x="9" y="8.5" stroke="#000" stroke-width="4" stroke-opacity="100" transform="scale(0.8)" />
    </mask>
  </defs>
  <rect width="20" height="20" mask="url(#mask-lock-warning)" fill="#585858"/>
  <use xlink:href="#shape-warning-triangle" x="9" y="8.5" fill="#ffbf00" transform="scale(0.8)" />
  <use xlink:href="#shape-warning-exclamation" x="9" y="8.5" fill="#fff" transform="scale(0.8)" />
</svg>
